# xmcd
#
# Track frame offsets:
#	150
#	21561
#	42744
#	69289
#	92299
#	113862
#	132656
#	152187
#	174443
#	196398
#
# Disc length: 2823 seconds
#
# Revision: 0
# Processed by: cddbd v1.5.2PL0 Copyright (c) Steve Scherf et al.
# Submitted via: EasyCDDAExtractor 16.1.0.1
#
DISCID=8a0b050a
DTITLE=Reginald Policard - Sa Se Trop
DYEAR=1997
DGENRE=Compas
TTITLE0=Sa Se Trop
TTITLE1=Ke Marasa
TTITLE2=Luna De Miel
TTITLE3=Voulez Vous Danser
TTITLE4=Trou Foban
TTITLE5=Why Not
TTITLE6=Stephanie
TTITLE7=Peze Cafe
TTITLE8=Sa Se Trop 'instrumentail)
TTITLE9=Stephanie (Instrumental)
EXTD=
EXTT0=
EXTT1=
EXTT2=
EXTT3=
EXTT4=
EXTT5=
EXTT6=
EXTT7=
EXTT8=
EXTT9=
PLAYORDER=
